<svg xmlns="http://www.w3.org/2000/svg" xmlns:xlink="http://www.w3.org/1999/xlink" width="100" height="100" viewBox="0 0 100 100">
  <defs>
    <clipPath id="clip-cin-seyahat-icon">
      <rect width="100" height="100"/>
    </clipPath>
  </defs>
  <g id="cin-seyahat-icon" clip-path="url(#clip-cin-seyahat-icon)">
    <g id="Group_14451" data-name="Group 14451" transform="translate(-1471.921 -787.753)">
      <ellipse id="Ellipse_483" data-name="Ellipse 483" cx="23.386" cy="23.386" rx="23.386" ry="23.386" transform="translate(1487.213 807.179)" fill="#eaeef9"/>
      <g id="Group_14216" data-name="Group 14216" transform="translate(1482.55 806.753)">
        <g id="Group_14173" data-name="Group 14173" transform="translate(47.667 22.258)">
          <g id="Group_14172" data-name="Group 14172" transform="translate(10.859 14.552)">
            <path id="Path_16099" data-name="Path 16099" d="M2140.929,585.392l6.09,5.431,8.781-10.739" transform="translate(-2140.929 -580.084)" fill="none" stroke="#19305b" stroke-linecap="round" stroke-miterlimit="10" stroke-width="3"/>
          </g>
          <path id="Path_16100" data-name="Path 16100" d="M2143.083,540.583a23.146,23.146,0,0,1-17.562-4.952,23.146,23.146,0,0,1-17.562,4.952s-3.382,28.7,17.563,34.891C2146.465,569.284,2143.083,540.583,2143.083,540.583Z" transform="translate(-2107.757 -535.631)" fill="none" stroke="#19305b" stroke-linecap="round" stroke-miterlimit="10" stroke-width="3"/>
        </g>
        <g id="Group_14176" data-name="Group 14176">
          <path id="Path_16101" data-name="Path 16101" d="M1998.432,512.054l4.146-2.9a112.67,112.67,0,0,0,15.072-12.642l18.105-18.1a10.013,10.013,0,0,0,2.757-5.2,17.553,17.553,0,0,0,.287-2.439,2.711,2.711,0,0,0-2.754-2.754,17.4,17.4,0,0,0-2.44.287,10.006,10.006,0,0,0-5.2,2.756L2010.3,489.161a112.782,112.782,0,0,0-12.642,15.072l-2.9,4.147" transform="translate(-1984.082 -467.888)" fill="none" stroke="#19305b" stroke-linecap="round" stroke-miterlimit="10" stroke-width="3"/>
          <g id="Group_14174" data-name="Group 14174" transform="translate(34.723 19.309)">
            <line id="Line_598" data-name="Line 598" x2="2.265" y2="5.288" transform="translate(8.157)" fill="none" stroke="#19305b" stroke-linecap="round" stroke-miterlimit="10" stroke-width="3"/>
            <line id="Line_599" data-name="Line 599" x1="3.665" y2="3.665" transform="translate(5.409 28.989)" fill="none" stroke="#19305b" stroke-linecap="round" stroke-miterlimit="10" stroke-width="3"/>
            <line id="Line_600" data-name="Line 600" x1="3.665" y2="3.665" transform="translate(0 21.924)" fill="none" stroke="#19305b" stroke-linecap="round" stroke-miterlimit="10" stroke-width="3"/>
            <line id="Line_601" data-name="Line 601" x1="10.037" y1="13.652" transform="translate(0.385 7.772)" fill="none" stroke="#19305b" stroke-linecap="round" stroke-miterlimit="10" stroke-width="3"/>
          </g>
          <g id="Group_14175" data-name="Group 14175" transform="translate(2.878)">
            <line id="Line_602" data-name="Line 602" x1="4.156" y1="1.821" transform="translate(16.378 4.83)" fill="none" stroke="#19305b" stroke-linecap="round" stroke-miterlimit="10" stroke-width="3"/>
            <line id="Line_603" data-name="Line 603" x1="7.581" y1="3.322" transform="translate(25.073 8.639)" fill="none" stroke="#19305b" stroke-linecap="round" stroke-miterlimit="10" stroke-width="3"/>
            <line id="Line_604" data-name="Line 604" x1="3.665" y2="3.665" transform="translate(0 11.043)" fill="none" stroke="#19305b" stroke-linecap="round" stroke-miterlimit="10" stroke-width="3"/>
            <line id="Line_605" data-name="Line 605" x1="3.665" y2="3.665" transform="translate(7.066 16.453)" fill="none" stroke="#19305b" stroke-linecap="round" stroke-miterlimit="10" stroke-width="3"/>
            <path id="Path_16102" data-name="Path 16102" d="M2038.194,484.307l1-1a1.6,1.6,0,0,0,0-2.265l-.995-1a1.6,1.6,0,0,0-2.265,0l-2.272,2.273" transform="translate(-2013.127 -475.669)" fill="none" stroke="#19305b" stroke-linecap="round" stroke-miterlimit="10" stroke-width="3"/>
            <path id="Path_16103" data-name="Path 16103" d="M1989.241,472.47l1.1-1.1a1.6,1.6,0,0,0,0-2.265l-1-1a1.6,1.6,0,0,0-2.265,0l-2.375,2.375-2.314-1.014a11.808,11.808,0,0,0-2.091-.7c-1.769-.406-4.764-.744-6.505,1l23.946,17.605" transform="translate(-1972.861 -467.639)" fill="none" stroke="#19305b" stroke-linecap="round" stroke-miterlimit="10" stroke-width="3"/>
          </g>
          <path id="Path_16104" data-name="Path 16104" d="M1998.165,602.553a8.289,8.289,0,0,1-1.119,10.672,8.267,8.267,0,0,0-2.685-5.232" transform="translate(-1983.815 -558.388)" fill="none" stroke="#19305b" stroke-linecap="round" stroke-linejoin="round" stroke-width="3"/>
          <path id="Path_16105" data-name="Path 16105" d="M1972.817,588.284a8.289,8.289,0,0,0-10.672,1.119,8.267,8.267,0,0,1,5.232,2.685" transform="translate(-1962.145 -547.796)" fill="none" stroke="#19305b" stroke-linecap="round" stroke-linejoin="round" stroke-width="3"/>
          <line id="Line_606" data-name="Line 606" x1="3.713" y2="3.713" transform="translate(5.105 46.023)" fill="none" stroke="#19305b" stroke-linecap="round" stroke-linejoin="round" stroke-width="3"/>
        </g>
        <path id="Path_16106" data-name="Path 16106" d="M2132.267,554.021a54.6,54.6,0,0,1,14.34,1.878c.128-1.739.152-3.294.132-4.536a26.9,26.9,0,0,1-14.472-4.321,26.9,26.9,0,0,1-14.479,4.321c-.023,1.243,0,2.8.123,4.541A54.576,54.576,0,0,1,2132.267,554.021Z" transform="translate(-2066.832 -521.049)" fill="#e71692"/>
      </g>
      <path id="Path_16198" data-name="Path 16198" d="M6.041,12.081a1.888,1.888,0,0,1-1.888-1.888A2.268,2.268,0,0,0,1.888,7.928a1.888,1.888,0,1,1,0-3.775A2.268,2.268,0,0,0,4.153,1.888a1.888,1.888,0,1,1,3.775,0,2.268,2.268,0,0,0,2.265,2.265,1.888,1.888,0,1,1,0,3.775,2.268,2.268,0,0,0-2.265,2.265A1.888,1.888,0,0,1,6.041,12.081Z" transform="translate(1474.871 830.412) rotate(-19)" fill="#f68823"/>
    </g>
  </g>
</svg>
