<svg xmlns="http://www.w3.org/2000/svg" xmlns:xlink="http://www.w3.org/1999/xlink" width="125" height="125" viewBox="0 0 125 125">
  <defs>
    <clipPath id="clip-cin-why-icon-4">
      <rect width="125" height="125"/>
    </clipPath>
  </defs>
  <g id="cin-why-icon-4" clip-path="url(#clip-cin-why-icon-4)">
    <g id="Group_14460" data-name="Group 14460" transform="translate(17911.063 3852.845)">
      <g id="Group_14457" data-name="Group 14457" transform="translate(-17888.543 -3829.657)">
        <path id="Path_15852" data-name="Path 15852" d="M771.024,1382.557a3.547,3.547,0,1,1-3.547-3.547A3.548,3.548,0,0,1,771.024,1382.557Z" transform="translate(-757.257 -1374.459)" fill="none" stroke="#344154" stroke-linecap="round" stroke-linejoin="round" stroke-width="2.5"/>
        <path id="Path_15853" data-name="Path 15853" d="M782.652,1401.714H749.871a4.038,4.038,0,0,1-4.038-4.038V1370.7a4.038,4.038,0,0,1,4.038-4.037h48.082a4.037,4.037,0,0,1,4.037,4.037v26.972" transform="translate(-745.833 -1366.667)" fill="none" stroke="#344154" stroke-linecap="round" stroke-linejoin="round" stroke-width="2.5"/>
        <path id="Path_15854" data-name="Path 15854" d="M802.573,1473.682h-20.52a3.772,3.772,0,0,1-3.772-3.772v-8.193" transform="translate(-766.318 -1426.67)" fill="none" stroke="#344154" stroke-linecap="round" stroke-linejoin="round" stroke-width="2.5"/>
        <path id="Path_15855" data-name="Path 15855" d="M898.138,1399.116h8.193a3.771,3.771,0,0,1,3.771,3.771v18.533" transform="translate(-841.981 -1387.152)" fill="none" stroke="#344154" stroke-linecap="round" stroke-linejoin="round" stroke-width="2.5"/>
        <path id="Rectangle_8527" data-name="Rectangle 8527" d="M3.547,0H6.017A3.547,3.547,0,0,1,9.564,3.547v0A3.548,3.548,0,0,1,6.016,7.095H3.548A3.548,3.548,0,0,1,0,3.547v0A3.547,3.547,0,0,1,3.547,0Z" transform="translate(40.064 4.551)" fill="none" stroke="#344154" stroke-linecap="round" stroke-linejoin="round" stroke-width="2.5"/>
        <path id="Path_15856" data-name="Path 15856" d="M789.682,1385.605a3.511,3.511,0,0,0,1.787.5,3.547,3.547,0,1,0,0-7.095,3.509,3.509,0,0,0-1.787.5" transform="translate(-773.514 -1374.459)" fill="none" stroke="#344154" stroke-linecap="round" stroke-linejoin="round" stroke-width="2.5"/>
        <g id="Group_14037" data-name="Group 14037" transform="translate(8.04 27.403)">
          <line id="Line_477" data-name="Line 477" x2="6.185" fill="none" stroke="#344154" stroke-linecap="round" stroke-linejoin="round" stroke-width="2.5"/>
          <line id="Line_478" data-name="Line 478" x2="6.185" transform="translate(11.297)" fill="none" stroke="#344154" stroke-linecap="round" stroke-linejoin="round" stroke-width="2.5"/>
          <line id="Line_479" data-name="Line 479" x2="6.185" transform="translate(22.594)" fill="none" stroke="#344154" stroke-linecap="round" stroke-linejoin="round" stroke-width="2.5"/>
          <line id="Line_480" data-name="Line 480" x2="6.185" transform="translate(33.891)" fill="none" stroke="#344154" stroke-linecap="round" stroke-linejoin="round" stroke-width="2.5"/>
        </g>
      </g>
      <g id="Group_14456" data-name="Group 14456" transform="translate(-17848.598 -3795.91)">
        <g id="Group_14041" data-name="Group 14041" transform="translate(12.231 16.391)">
          <path id="Path_15859" data-name="Path 15859" d="M887.339,1508.624l6.859,6.117,9.89-12.1" transform="translate(-887.339 -1502.645)" fill="none" stroke="#344154" stroke-linecap="round" stroke-miterlimit="10" stroke-width="2.5"/>
        </g>
        <path id="Path_15860" data-name="Path 15860" d="M893.956,1463.77a26.071,26.071,0,0,1-19.781-5.578,26.071,26.071,0,0,1-19.781,5.578s-3.809,32.327,19.781,39.3C897.765,1496.1,893.956,1463.77,893.956,1463.77Z" transform="translate(-854.166 -1458.192)" fill="none" stroke="#344154" stroke-linecap="round" stroke-miterlimit="10" stroke-width="2.5"/>
      </g>
      <path id="Path_17239" data-name="Path 17239" d="M880.507,1476.718a61.5,61.5,0,0,1,16.152,2.116c.145-1.958.171-3.711.148-5.109a30.292,30.292,0,0,1-16.3-4.868,30.3,30.3,0,0,1-16.308,4.868c-.026,1.4,0,3.153.139,5.114A61.5,61.5,0,0,1,880.507,1476.718Z" transform="translate(-18709.094 -5260.835)" fill="#e71b93"/>
    </g>
  </g>
</svg>
