<svg xmlns="http://www.w3.org/2000/svg" xmlns:xlink="http://www.w3.org/1999/xlink" width="100" height="100" viewBox="0 0 100 100">
  <defs>
    <clipPath id="clip-cin-trafik-icon">
      <rect width="100" height="100"/>
    </clipPath>
  </defs>
  <g id="cin-trafik-icon" clip-path="url(#clip-cin-trafik-icon)">
    <g id="Group_14446" data-name="Group 14446" transform="translate(-522.881 -786.129)">
      <ellipse id="Ellipse_463" data-name="Ellipse 463" cx="26.934" cy="26.934" rx="26.934" ry="26.934" transform="translate(531.881 804.48)" fill="#eaeef9"/>
      <path id="Path_15404" data-name="Path 15404" d="M807.4,2089.47h11.831v-2.081a4.216,4.216,0,0,0-3.608-4.172l-8.224-1.132Z" transform="translate(-260.106 -1242.679)" fill="#ce1b75"/>
      <path id="Path_15405" data-name="Path 15405" d="M849.561,2078.918v2.769a4.954,4.954,0,0,0,4.955,4.955h2.77a4.954,4.954,0,0,0,4.955-4.955v-20.964a3.446,3.446,0,0,1,1.741-2.994l1.524-.867a1.206,1.206,0,0,0,.792-1.133v-4.056a1.206,1.206,0,0,0-1.206-1.206h-3.927a4.474,4.474,0,0,1-3.927-2.332l-5.727-10.5a6.4,6.4,0,0,0-5.615-3.334H811.437a6.4,6.4,0,0,0-5.615,3.333l-5.727,10.5a4.473,4.473,0,0,1-3.927,2.332h-3.926a1.206,1.206,0,0,0-1.206,1.206v4.056a1.206,1.206,0,0,0,.792,1.133l1.524.867a3.446,3.446,0,0,1,1.741,2.994v20.963a4.954,4.954,0,0,0,4.955,4.955h2.77a4.954,4.954,0,0,0,4.954-4.955v-2.77Z" transform="translate(-253.268 -1222.706)" fill="none" stroke="#19305b" stroke-linecap="round" stroke-linejoin="round" stroke-width="3.5"/>
      <path id="Path_15406" data-name="Path 15406" d="M895.5,2089.47H883.663v-2.081a4.216,4.216,0,0,1,3.608-4.172l8.224-1.132Z" transform="translate(-291.987 -1242.679)" fill="#ce1b75"/>
      <line id="Line_472" data-name="Line 472" x2="18.665" transform="translate(566.067 846.792)" fill="none" stroke="#19305b" stroke-linecap="round" stroke-linejoin="round" stroke-width="3.5"/>
      <path id="Path_15407" data-name="Path 15407" d="M856.715,2044.3a.829.829,0,0,0-.728-.432H821.528a.83.83,0,0,0-.728.432l-5.624,10.31h47.162Z" transform="translate(-263.359 -1226.704)" fill="#8aa0b2"/>
      <path id="Path_16194" data-name="Path 16194" d="M6.475,12.95a2.023,2.023,0,0,1-2.023-2.023A2.43,2.43,0,0,0,2.023,8.5a2.023,2.023,0,0,1,0-4.047A2.431,2.431,0,0,0,4.451,2.023a2.023,2.023,0,1,1,4.047,0,2.431,2.431,0,0,0,2.428,2.428,2.023,2.023,0,0,1,0,4.047A2.43,2.43,0,0,0,8.5,10.926,2.023,2.023,0,0,1,6.475,12.95Z" transform="translate(531.881 805.525) rotate(-19)" fill="#f68823"/>
    </g>
  </g>
</svg>
