<svg xmlns="http://www.w3.org/2000/svg" xmlns:xlink="http://www.w3.org/1999/xlink" width="125" height="125" viewBox="0 0 125 125">
  <defs>
    <clipPath id="clip-cin-why-icon-2">
      <rect width="125" height="125"/>
    </clipPath>
  </defs>
  <g id="cin-why-icon-2" clip-path="url(#clip-cin-why-icon-2)">
    <g id="Group_14458" data-name="Group 14458" transform="translate(17911.193 4007.899)">
      <path id="Path_17237" data-name="Path 17237" d="M44.667,37.523a1.609,1.609,0,0,0,0-2.153l-2.95-3.276a1.609,1.609,0,0,1-.4-1.245l.462-4.385a1.609,1.609,0,0,0-1.267-1.742L36.2,23.809a1.609,1.609,0,0,1-1.061-.771l-2.2-3.82a1.609,1.609,0,0,0-2.051-.666l-4.024,1.8a1.609,1.609,0,0,1-1.313,0l-4.024-1.8a1.609,1.609,0,0,0-2.051.666l-2.2,3.82a1.609,1.609,0,0,1-1.061.771l-4.312.913a1.609,1.609,0,0,0-1.267,1.742l.462,4.385a1.609,1.609,0,0,1-.4,1.245L7.742,35.37a1.609,1.609,0,0,0,0,2.153l2.95,3.276a1.609,1.609,0,0,1,.4,1.245l-.462,4.385A1.609,1.609,0,0,0,11.9,48.171l4.312.913a1.609,1.609,0,0,1,1.061.771l2.2,3.82a1.609,1.609,0,0,0,2.051.666l4.024-1.8a1.609,1.609,0,0,1,1.313,0l4.024,1.8a1.609,1.609,0,0,0,2.051-.666l2.2-3.82a1.609,1.609,0,0,1,1.061-.771l4.312-.913a1.609,1.609,0,0,0,1.267-1.742l-.462-4.385a1.609,1.609,0,0,1,.4-1.245ZM33.693,32.929l-8.4,9.41a.989.989,0,0,1-1.437.041l-5.339-5.339a.989.989,0,0,1,0-1.4l.214-.214a.989.989,0,0,1,1.4,0l3.633,3.633A.989.989,0,0,0,25.2,39.02l6.792-7.61a.989.989,0,0,1,1.4-.079l.226.2A.989.989,0,0,1,33.693,32.929Z" transform="translate(-17856.031 -3961.701)" fill="#e71b93"/>
      <g id="Group_14454" data-name="Group 14454" transform="translate(-17886.438 -3973.162)">
        <path id="Path_15143" data-name="Path 15143" d="M1374.445,1506.91h-30.479a1.276,1.276,0,0,1-1.276-1.276v-53.589a1.276,1.276,0,0,1,1.276-1.276h66.116a1.276,1.276,0,0,1,1.276,1.276V1478.5" transform="translate(-1342.69 -1450.768)" fill="none" stroke="#344154" stroke-linecap="round" stroke-linejoin="round" stroke-width="3"/>
        <circle id="Ellipse_453" data-name="Ellipse 453" cx="1.987" cy="1.987" r="1.987" transform="translate(6.597 5.431)" fill="#e71b93"/>
        <circle id="Ellipse_454" data-name="Ellipse 454" cx="1.987" cy="1.987" r="1.987" transform="translate(15.343 5.431)" fill="#e71b93"/>
        <circle id="Ellipse_455" data-name="Ellipse 455" cx="1.987" cy="1.987" r="1.987" transform="translate(24.089 5.431)" fill="#e71b93"/>
        <line id="Line_323" data-name="Line 323" x2="68.668" transform="translate(0 14.982)" fill="none" stroke="#344154" stroke-miterlimit="10" stroke-width="3"/>
        <path id="Path_15144" data-name="Path 15144" d="M1383.5,1517.048h-18.293a3.983,3.983,0,0,1-3.983-3.983h0a3.983,3.983,0,0,1,3.983-3.983H1383.5a3.983,3.983,0,0,1,3.983,3.983h0A3.983,3.983,0,0,1,1383.5,1517.048Z" transform="translate(-1354.717 -1489.602)" fill="none" stroke="#344154" stroke-linecap="round" stroke-miterlimit="10" stroke-width="2"/>
        <path id="Path_15145" data-name="Path 15145" d="M1383.5,1554.066h-18.293a3.983,3.983,0,0,1-3.983-3.983h0a3.982,3.982,0,0,1,3.983-3.983H1383.5a3.983,3.983,0,0,1,3.983,3.983h0A3.983,3.983,0,0,1,1383.5,1554.066Z" transform="translate(-1354.717 -1514.621)" fill="none" stroke="#344154" stroke-linecap="round" stroke-miterlimit="10" stroke-width="2"/>
        <path id="Path_16241" data-name="Path 16241" d="M1383.5,1554.066h-18.293a3.983,3.983,0,0,1-3.983-3.983h0a3.982,3.982,0,0,1,3.983-3.983H1383.5a3.983,3.983,0,0,1,3.983,3.983h0A3.983,3.983,0,0,1,1383.5,1554.066Z" transform="translate(-1354.717 -1502.584)" fill="none" stroke="#344154" stroke-linecap="round" stroke-miterlimit="10" stroke-width="2"/>
        <rect id="Rectangle_8447" data-name="Rectangle 8447" width="31.219" height="5.021" transform="translate(32.77 4.907)" fill="#8aa0b2"/>
      </g>
    </g>
  </g>
</svg>
