<svg xmlns="http://www.w3.org/2000/svg" xmlns:xlink="http://www.w3.org/1999/xlink" width="100" height="100" viewBox="0 0 100 100">
  <defs>
    <clipPath id="clip-cin-kasko-icon">
      <rect width="100" height="100"/>
    </clipPath>
  </defs>
  <g id="cin-kasko-icon" clip-path="url(#clip-cin-kasko-icon)">
    <g id="Group_14440" data-name="Group 14440" transform="translate(-324.457 -758.236)">
      <g id="Group_14222" data-name="Group 14222" transform="translate(318.779 786.956) rotate(-19)">
        <path id="Path_13481" data-name="Path 13481" d="M3.221,18.293c-3.8,6.24-4.2,17.045-1.416,23.8,2.436,5.916,7.281,11.469,13.64,12.164,2.339.256,4.729-.162,7.044.259,7.96,1.45,10.921,11.26,17.108,16.475C43.9,74.62,49.877,75.9,55.464,75.2a34.738,34.738,0,0,0,15.423-6.466c3.636-2.559,7.038-5.705,8.832-9.774C83.48,50.437,79.056,40.2,72.182,33.9c-2.141-1.96-4.527-3.69-6.316-5.976s-2.927-5.337-2.075-8.112c.68-2.214,2.51-3.93,3.2-6.14.944-3.007-.481-6.38-2.82-8.492s-5.434-3.174-8.5-3.9C42.83-1.774,14.681-.546,3.221,18.293Z" transform="translate(0 0)" fill="#eaeef9"/>
      </g>
      <g id="Group_13730" data-name="Group 13730" transform="translate(-449.936 86.889)">
        <path id="Path_15404" data-name="Path 15404" d="M807.4,2089.071h11.191V2087.1a3.988,3.988,0,0,0-3.413-3.946l-7.779-1.071Z" transform="translate(1.646 -1357.478)" fill="#ce1b75"/>
        <path id="Path_15405" data-name="Path 15405" d="M846.393,2076.5v2.619a4.686,4.686,0,0,0,4.687,4.687h2.62a4.686,4.686,0,0,0,4.686-4.686v-19.829a3.26,3.26,0,0,1,1.647-2.832l1.442-.82a1.141,1.141,0,0,0,.749-1.071v-3.836a1.141,1.141,0,0,0-1.141-1.141H857.37a4.232,4.232,0,0,1-3.715-2.205l-5.417-9.932a6.05,6.05,0,0,0-5.311-3.153H810.333a6.05,6.05,0,0,0-5.311,3.153l-5.417,9.932a4.231,4.231,0,0,1-3.715,2.205h-3.714a1.141,1.141,0,0,0-1.141,1.141v3.836a1.141,1.141,0,0,0,.749,1.071l1.442.82a3.26,3.26,0,0,1,1.647,2.832v19.828a4.686,4.686,0,0,0,4.687,4.687h2.62a4.686,4.686,0,0,0,4.686-4.686v-2.62Z" transform="translate(9 -1336)" fill="none" stroke="#19305b" stroke-linecap="round" stroke-linejoin="round" stroke-width="3.5"/>
        <path id="Path_15406" data-name="Path 15406" d="M894.855,2089.071H883.663V2087.1a3.988,3.988,0,0,1,3.413-3.946l7.779-1.071Z" transform="translate(-32.636 -1357.478)" fill="#ce1b75"/>
        <line id="Line_470" data-name="Line 470" x1="4.902" transform="translate(810.965 740.503)" fill="none" stroke="#19305b" stroke-linecap="round" stroke-linejoin="round" stroke-width="3.5"/>
        <line id="Line_471" data-name="Line 471" x2="4.903" transform="translate(855.393 740.503)" fill="none" stroke="#19305b" stroke-linecap="round" stroke-linejoin="round" stroke-width="3.5"/>
        <line id="Line_472" data-name="Line 472" x2="17.655" transform="translate(826.802 731.593)" fill="none" stroke="#19305b" stroke-linecap="round" stroke-linejoin="round" stroke-width="3.5"/>
        <path id="Path_15407" data-name="Path 15407" d="M854.467,2044.277a.785.785,0,0,0-.688-.408H821.184a.785.785,0,0,0-.689.408l-5.319,9.752h44.609Z" transform="translate(-1.851 -1340.299)" fill="#8aa0b2"/>
      </g>
      <path id="Path_13503" data-name="Path 13503" d="M6.862,13.723a2.144,2.144,0,0,1-2.144-2.144A2.576,2.576,0,0,0,2.144,9.006a2.144,2.144,0,1,1,0-4.289A2.576,2.576,0,0,0,4.717,2.144a2.144,2.144,0,1,1,4.289,0,2.576,2.576,0,0,0,2.573,2.573,2.144,2.144,0,1,1,0,4.289,2.576,2.576,0,0,0-2.573,2.573A2.144,2.144,0,0,1,6.862,13.723Z" transform="translate(338.557 777.209) rotate(-19)" fill="#f68823"/>
      <path id="Path_16195" data-name="Path 16195" d="M2.956,5.913a.924.924,0,0,1-.924-.924A1.11,1.11,0,0,0,.924,3.88a.924.924,0,0,1,0-1.848A1.11,1.11,0,0,0,2.033.924a.924.924,0,1,1,1.848,0A1.11,1.11,0,0,0,4.989,2.033a.924.924,0,1,1,0,1.848A1.11,1.11,0,0,0,3.88,4.989.924.924,0,0,1,2.956,5.913Z" transform="translate(356.965 776.68) rotate(-19)" fill="#e71692"/>
      <path id="Path_16196" data-name="Path 16196" d="M2.956,5.913a.924.924,0,0,1-.924-.924A1.11,1.11,0,0,0,.924,3.88a.924.924,0,0,1,0-1.848A1.11,1.11,0,0,0,2.033.924a.924.924,0,1,1,1.848,0A1.11,1.11,0,0,0,4.989,2.033a.924.924,0,1,1,0,1.848A1.11,1.11,0,0,0,3.88,4.989.924.924,0,0,1,2.956,5.913Z" transform="translate(338.557 792.11) rotate(-19)" fill="#e71692"/>
    </g>
  </g>
</svg>
