<svg xmlns="http://www.w3.org/2000/svg" xmlns:xlink="http://www.w3.org/1999/xlink" width="125" height="125" viewBox="0 0 125 125">
  <defs>
    <clipPath id="clip-cin-why-icon-1">
      <rect width="125" height="125"/>
    </clipPath>
  </defs>
  <g id="cin-why-icon-1" clip-path="url(#clip-cin-why-icon-1)">
    <g id="Group_14453" data-name="Group 14453" transform="translate(-747.546 -2092.879)">
      <path id="Path_15201" data-name="Path 15201" d="M876.655,2168.888c-14.242,9.562-24.867-6.19-24.867-6.19-5.035-6.883-8.638.231-8.638.231-2.648,6.437-6.467,5.851-8.719,4.746a2.627,2.627,0,0,1-1.317-3.1l1.7-5.833a9.013,9.013,0,0,1,5.023-5.729l6.425-2.827c2.3-1.011,4.417-.781,7.252-.2l16.75,3.967" transform="translate(-30.747 -11.338)" fill="none" stroke="#344154" stroke-linecap="round" stroke-linejoin="round" stroke-width="3"/>
      <path id="Path_15202" data-name="Path 15202" d="M895.515,2181.4l3.537,8.268-11.03,3.506-6.91-9.629" transform="translate(-49.607 -23.848)" fill="none" stroke="#344154" stroke-linecap="round" stroke-linejoin="round" stroke-width="3"/>
      <path id="Path_15203" data-name="Path 15203" d="M789.552,2143.71l12.5,5.267-11.086,25.914-12.237-4.761" transform="translate(-9.469 -9.072)" fill="none" stroke="#344154" stroke-linecap="round" stroke-linejoin="round" stroke-width="3"/>
      <path id="Path_15204" data-name="Path 15204" d="M906.8,2148.166l-12.5,5.267,11.086,25.914,12.237-4.76" transform="translate(-54.774 -10.819)" fill="none" stroke="#344154" stroke-linecap="round" stroke-linejoin="round" stroke-width="3"/>
      <path id="Path_15205" data-name="Path 15205" d="M873.664,2184.82l9.51,11.927a3.388,3.388,0,0,1,.548,3.237h0a3.866,3.866,0,0,1-6.461,1.369L864.2,2187.5" transform="translate(-42.978 -25.19)" fill="none" stroke="#344154" stroke-linecap="round" stroke-linejoin="round" stroke-width="3"/>
      <path id="Path_15206" data-name="Path 15206" d="M854.707,2199.938l10.988,11.494a5.69,5.69,0,0,0,9.526-2.112c.02-.063.04-.126.06-.191" transform="translate(-39.255 -31.117)" fill="none" stroke="#344154" stroke-linecap="round" stroke-linejoin="round" stroke-width="3"/>
      <path id="Path_15207" data-name="Path 15207" d="M846.045,2208.826l9.088,10.093a5.76,5.76,0,0,0,3.91,1.974c1.715.094,3.886-.559,5.71-3.549" transform="translate(-35.859 -34.601)" fill="none" stroke="#344154" stroke-linecap="round" stroke-linejoin="round" stroke-width="3"/>
      <path id="Path_15208" data-name="Path 15208" d="M817.1,2152.254s10.006-.831,18.168,1.04" transform="translate(-24.509 -12.35)" fill="none" stroke="#344154" stroke-linecap="round" stroke-linejoin="round" stroke-width="3"/>
      <path id="Path_15209" data-name="Path 15209" d="M802.055,2187.531a225.3,225.3,0,0,1,26.235,22.093l4.259,4.088a3.721,3.721,0,0,0,6.256-1.983c.006-.039.011-.079.018-.119" transform="translate(-18.612 -26.253)" fill="none" stroke="#344154" stroke-linecap="round" stroke-linejoin="round" stroke-width="3"/>
      <path id="Path_15210" data-name="Path 15210" d="M812.725,2196.429l-1.12,1.252a2.88,2.88,0,0,0,.322,4.15h0a3.2,3.2,0,0,0,4.424-.354l1.094-1.236" transform="translate(-22.069 -29.741)" fill="none" stroke="#344154" stroke-linecap="round" stroke-linejoin="round" stroke-width="3"/>
      <path id="Path_15211" data-name="Path 15211" d="M825.61,2207.8l-2.456,2.678a3.58,3.58,0,0,1-4.98.288h0a3.58,3.58,0,0,1-.362-5.053l2.288-2.637" transform="translate(-24.447 -32.348)" fill="none" stroke="#344154" stroke-linecap="round" stroke-linejoin="round" stroke-width="3"/>
      <path id="Path_15212" data-name="Path 15212" d="M829.576,2210.848l-1.589,1.733a3.552,3.552,0,0,0,.2,5h0a3.553,3.553,0,0,0,5.007-.164l1.66-1.762" transform="translate(-28.413 -35.394)" fill="none" stroke="#344154" stroke-linecap="round" stroke-linejoin="round" stroke-width="3"/>
      <path id="Path_15213" data-name="Path 15213" d="M843.6,2223.581l-.874.894a3.358,3.358,0,0,1-4.721.082h0a3.359,3.359,0,0,1-.125-4.732l.629-.667" transform="translate(-32.299 -38.652)" fill="none" stroke="#344154" stroke-linecap="round" stroke-linejoin="round" stroke-width="3"/>
      <path id="Path_15218" data-name="Path 15218" d="M753.881,2156.685h0a7.853,7.853,0,0,0,10.16-4.325l10-24.411-20.156-8.171v36.907" transform="translate(3 3.391)" fill="#e71b93"/>
    </g>
  </g>
</svg>
