<svg xmlns="http://www.w3.org/2000/svg" xmlns:xlink="http://www.w3.org/1999/xlink" width="125" height="125" viewBox="0 0 125 125">
  <defs>
    <clipPath id="clip-cin-why-icon-3">
      <rect width="125" height="125"/>
    </clipPath>
  </defs>
  <g id="cin-why-icon-3" clip-path="url(#clip-cin-why-icon-3)">
    <g id="Group_14459" data-name="Group 14459" transform="translate(18112.318 3859.468)">
      <path id="Path_17238" data-name="Path 17238" d="M884.268,1475.928a102.085,102.085,0,0,1,19.875,1.9,37.713,37.713,0,0,0,.182-4.6,47.37,47.37,0,0,1-20.057-4.378,47.376,47.376,0,0,1-20.067,4.378,37.6,37.6,0,0,0,.171,4.6A102.052,102.052,0,0,1,884.268,1475.928Z" transform="translate(-18934.037 -5298.348)" fill="#e71b93"/>
      <g id="Group_14455" data-name="Group 14455" transform="translate(-18097.514 -3836.199)">
        <g id="Group_13675" data-name="Group 13675" transform="translate(41.12 23.363)">
          <path id="Path_15229" data-name="Path 15229" d="M1728.322,2080.459l5.387,4.8,7.768-9.5" transform="translate(-1728.322 -2075.764)" fill="none" stroke="#344154" stroke-linecap="round" stroke-linejoin="round" stroke-width="4"/>
        </g>
        <path id="Path_15230" data-name="Path 15230" d="M1738.34,2034.382a32.663,32.663,0,0,1-24.784-6.988,32.663,32.663,0,0,1-24.784,6.988s-4.772,40.5,24.784,49.238C1743.112,2074.885,1738.34,2034.382,1738.34,2034.382Z" transform="translate(-1665.583 -2027.394)" fill="none" stroke="#344154" stroke-linecap="round" stroke-miterlimit="10" stroke-width="3"/>
        <g id="Group_13676" data-name="Group 13676" transform="translate(60.21 23.363)">
          <path id="Path_15231" data-name="Path 15231" d="M1790.576,2158.848c.235.032.466.058.693.078a11.3,11.3,0,0,0,9.813-4.39c4.814-6.164,8.479-2.315,8.479-2.315a78.762,78.762,0,0,0-6.677,9.464,14.271,14.271,0,0,1-8.813,6.839q-.348.087-.712.162a8.3,8.3,0,0,0-5.654,4.275" transform="translate(-1774.378 -2126.382)" fill="none" stroke="#344154" stroke-linecap="round" stroke-miterlimit="10" stroke-width="2.2"/>
          <path id="Path_15232" data-name="Path 15232" d="M1830.477,2108.937l1.64-7.493-4.813-14.775s-2.762.692-2.049,4.907l2.184,9.611-1.49,6.076" transform="translate(-1798.888 -2084.237)" fill="none" stroke="#344154" stroke-linecap="round" stroke-miterlimit="10" stroke-width="2.2"/>
          <path id="Path_15233" data-name="Path 15233" d="M1818.959,2083.612l-1.292-3.99s-3.574,1.314-2.368,6.075l2,10.436-1.6,5.645" transform="translate(-1792.284 -2079.622)" fill="none" stroke="#344154" stroke-linecap="round" stroke-miterlimit="10" stroke-width="2.2"/>
          <path id="Path_15234" data-name="Path 15234" d="M1809.756,2091.143l-.182.133a5.424,5.424,0,0,0-2.125,5.374l1.157,6.18-1.651,5.748" transform="translate(-1786.983 -2087.166)" fill="none" stroke="#344154" stroke-linecap="round" stroke-miterlimit="10" stroke-width="2.2"/>
          <path id="Path_15235" data-name="Path 15235" d="M1749.1,2149.239v-3.983a35.126,35.126,0,0,1,1.326-9.561h0a15.074,15.074,0,0,1,8.163-9.572l3.291-1.526a7.359,7.359,0,0,0,3.983-4.667l1.585-5.586a.165.165,0,0,0,0-.065l-.108-.809a5,5,0,0,1,2.316-4.9h0" transform="translate(-1749.101 -2098.573)" fill="none" stroke="#344154" stroke-linecap="round" stroke-linejoin="round" stroke-width="2.2"/>
          <path id="Path_15236" data-name="Path 15236" d="M1749.1,2214.355l12.894,4.434,1.872-4.671a3,3,0,0,0-1.771-3.943l-6.008-2.162" transform="translate(-1749.101 -2163.69)" fill="none" stroke="#344154" stroke-linecap="round" stroke-linejoin="round" stroke-width="2.2"/>
        </g>
        <g id="Group_13677" data-name="Group 13677" transform="translate(0 23.363)">
          <path id="Path_15237" data-name="Path 15237" d="M1648.745,2158.848c-.235.032-.466.058-.693.078a11.3,11.3,0,0,1-9.813-4.39c-4.813-6.164-8.479-2.315-8.479-2.315a78.737,78.737,0,0,1,6.677,9.464,14.272,14.272,0,0,0,8.813,6.839q.348.087.712.162a8.3,8.3,0,0,1,5.654,4.275" transform="translate(-1629.76 -2126.382)" fill="none" stroke="#344154" stroke-linecap="round" stroke-miterlimit="10" stroke-width="2.2"/>
          <path id="Path_15238" data-name="Path 15238" d="M1637.06,2108.937l-1.64-7.493,4.813-14.775s2.762.692,2.049,4.907l-2.184,9.611,1.49,6.076" transform="translate(-1633.466 -2084.237)" fill="none" stroke="#344154" stroke-linecap="round" stroke-miterlimit="10" stroke-width="2.2"/>
          <path id="Path_15239" data-name="Path 15239" d="M1654.4,2083.612l1.292-3.99s3.574,1.314,2.368,6.075l-2,10.436,1.6,5.645" transform="translate(-1645.897 -2079.622)" fill="none" stroke="#344154" stroke-linecap="round" stroke-miterlimit="10" stroke-width="2.2"/>
          <path id="Path_15240" data-name="Path 15240" d="M1665.707,2091.143l.182.133a5.424,5.424,0,0,1,2.125,5.374l-1.157,6.18,1.651,5.748" transform="translate(-1653.298 -2087.166)" fill="none" stroke="#344154" stroke-linecap="round" stroke-miterlimit="10" stroke-width="2.2"/>
          <path id="Path_15241" data-name="Path 15241" d="M1692.677,2149.239v-3.983a35.126,35.126,0,0,0-1.326-9.561h0a15.074,15.074,0,0,0-8.163-9.572l-3.291-1.526a7.36,7.36,0,0,1-3.983-4.667l-1.584-5.586a.165.165,0,0,1,0-.065l.108-.809a5,5,0,0,0-2.316-4.9h0" transform="translate(-1657.494 -2098.573)" fill="none" stroke="#344154" stroke-linecap="round" stroke-linejoin="round" stroke-width="2.2"/>
          <path id="Path_15242" data-name="Path 15242" d="M1703.257,2214.355l-12.894,4.434-1.872-4.671a3,3,0,0,1,1.771-3.943l6.007-2.162" transform="translate(-1668.075 -2163.69)" fill="none" stroke="#344154" stroke-linecap="round" stroke-linejoin="round" stroke-width="2.2"/>
        </g>
      </g>
    </g>
  </g>
</svg>
