<svg xmlns="http://www.w3.org/2000/svg" xmlns:xlink="http://www.w3.org/1999/xlink" width="100" height="100" viewBox="0 0 100 100">
  <defs>
    <clipPath id="clip-cin-ozel-saglik-icon">
      <rect width="100" height="100"/>
    </clipPath>
  </defs>
  <g id="cin-ozel-saglik-icon" clip-path="url(#clip-cin-ozel-saglik-icon)">
    <g id="Group_14448" data-name="Group 14448" transform="translate(-910.407 -761.062)">
      <ellipse id="Ellipse_441" data-name="Ellipse 441" cx="24.922" cy="24.922" rx="24.922" ry="24.922" transform="translate(941.851 780.238)" fill="#eaeef9"/>
      <g id="Group_13561" data-name="Group 13561" transform="translate(925.768 778.153)">
        <path id="Path_15003" data-name="Path 15003" d="M567.652,416.608a7.84,7.84,0,0,0-1.839,15.537l-.833,16.431a1.3,1.3,0,0,0-.925,1.181c-.024.943-.119,1.886-.226,2.824q-.174,1.531-.444,3.053c-.052.294-.107.587-.164.88l-.015.078-.009.041c-.036.17-.071.341-.108.511q-.21.968-.462,1.93a35.568,35.568,0,0,1-3.172,8.18c-.073.132-.147.262-.222.394.033-.06-.132.224-.183.308q-.313.513-.653,1.015a22.565,22.565,0,0,1-1.387,1.841q-.351.418-.729.823-.178.19-.361.377c-.081.082-.165.163-.247.245-.025.026-.081.078-.123.117a18.549,18.549,0,0,1-1.724,1.4q-.455.324-.94.622c-.153.094-.309.184-.464.275.419-.249-.249.13-.359.186a16.768,16.768,0,0,1-2.3.953c-.081.027-.164.05-.243.078l-.028.01-.013,0c-.19.049-.378.1-.569.15q-.68.166-1.379.281c-.434.072-.872.122-1.312.17l-.115.01.118-.008-.2.013-.035,0-.057,0c-.295.013-.588.027-.884.031a29.1,29.1,0,0,1-3.079-.154l-.019,0-.289-.042q-.323-.048-.642-.107-.76-.139-1.5-.333c-.392-.1-.772-.227-1.156-.345l-.024-.007-.023-.009c-.08-.032-.162-.06-.242-.091q-.359-.139-.709-.291-.518-.227-1.014-.483-.273-.141-.538-.291c-.091-.051-.583-.358-.464-.276a17.6,17.6,0,0,1-1.768-1.322q-.4-.34-.762-.7c-.068-.066-.4-.418-.27-.272-.129-.139-.257-.278-.381-.419a20.352,20.352,0,0,1-2.53-3.684l-.044-.084-.056-.109c-.073-.149-.148-.3-.219-.448q-.251-.526-.474-1.059c-.285-.678-.539-1.363-.766-2.053-.051-.157-.1-.314-.145-.471a17.633,17.633,0,0,0,9.319-3.595c8.144-6.157,11.556-16.957,11.6-26.826.024-5.5,0-10.991,0-16.486a1.941,1.941,0,0,0-1.949-1.993.619.619,0,0,0-.108-.013l-3.9-.009,0-1.024-5.259-.013a.954.954,0,0,0-.956.952l0,1.945a.954.954,0,0,0,.951.955l5.261.013,0-.9,1.827,0c0,.029,0,.055,0,.085v15.055c0,7.919-1.635,16.238-7.083,22.32-2.479,2.768-5.776,5.029-9.563,5.391a13.516,13.516,0,0,1-10.093-3.5c-6.479-5.654-8.976-14.721-8.988-23.049q-.011-8.106,0-16.212c0-.03,0-.057,0-.085l1.636,0,0,.9,5.26-.013a.954.954,0,0,0,.952-.955l0-1.945a.954.954,0,0,0-.956-.952l-5.259.013,0,1.024-3.9.009a.7.7,0,0,0-.257.055,1.9,1.9,0,0,0-1.608,1.952V432.33c0,9,2.42,18.417,8.772,25.084a19.38,19.38,0,0,0,10.377,5.855,22.12,22.12,0,0,0,7.221,11.8c5.708,4.637,15.576,5.849,22.566,2.379,6.675-3.313,9.92-9.49,11.769-15.192a48.919,48.919,0,0,0,1.823-7.962,33.294,33.294,0,0,0,.429-4.244c0-.065.006-.131.008-.2a1.26,1.26,0,0,0-.743-1.166l.833-16.434a7.84,7.84,0,0,0-.259-15.643m4.986,8.1a5.39,5.39,0,0,1-4.6,5.059l.1-2.015-2.1-.107-.1,2.015a5.389,5.389,0,1,1,6.7-4.953" transform="translate(-504.857 -413.546)" fill="#19305b"/>
        <path id="Path_15004" data-name="Path 15004" d="M700.9,443.187a1.845,1.845,0,1,0,1.749,1.936,1.845,1.845,0,0,0-1.749-1.936" transform="translate(-638.461 -433.946)" fill="#ce1b75"/>
      </g>
      <path id="Path_16185" data-name="Path 16185" d="M2040.464,1110.745l1.793,1.438,1.793-1.438c1.227-1.068,7.152-5.993,8.143-6.879a9.155,9.155,0,0,0,3.22-8.6,7.143,7.143,0,0,0-5.774-5.429c-5.1-.856-7.382,4.261-7.382,4.261s-2.279-5.117-7.383-4.261a7.144,7.144,0,0,0-5.774,5.429,9.155,9.155,0,0,0,3.22,8.6c.991.886,6.916,5.81,8.143,6.879" transform="translate(-1094.666 -302.208)" fill="none" stroke="#19305b" stroke-linecap="round" stroke-miterlimit="10" stroke-width="3"/>
      <path id="Path_16186" data-name="Path 16186" d="M2089.26,1102.145a4.1,4.1,0,0,0-2.9-2.054,3.831,3.831,0,0,0-.626-.054c-2.228,0-3.45,2.521-3.461,2.546l-.4.9a3.974,3.974,0,0,1,3.053.13,4.471,4.471,0,0,1,2.006,4.584,7.417,7.417,0,0,1-.292,1.282c.343-.292.607-.519.747-.644a6.148,6.148,0,0,0,2.292-5.589A4.272,4.272,0,0,0,2089.26,1102.145Z" transform="translate(-1131.889 -309.455)" fill="#ce1b75"/>
      <path id="Path_16193" data-name="Path 16193" d="M6.1,12.208A1.907,1.907,0,0,1,4.2,10.3,2.291,2.291,0,0,0,1.907,8.011a1.907,1.907,0,1,1,0-3.815A2.291,2.291,0,0,0,4.2,1.907a1.907,1.907,0,1,1,3.815,0A2.291,2.291,0,0,0,10.3,4.2a1.907,1.907,0,1,1,0,3.815A2.291,2.291,0,0,0,8.011,10.3,1.907,1.907,0,0,1,6.1,12.208Z" transform="translate(962.931 817.673) rotate(-19)" fill="#f68823"/>
    </g>
  </g>
</svg>
