<svg xmlns="http://www.w3.org/2000/svg" xmlns:xlink="http://www.w3.org/1999/xlink" width="70" height="35" viewBox="0 0 70 35">
  <defs>
    <clipPath id="clip-comments-icon">
      <rect width="70" height="35"/>
    </clipPath>
  </defs>
  <g id="comments-icon" clip-path="url(#clip-comments-icon)">
    <g id="reviews" transform="translate(-0.223 -0.415)">
      <path id="Path_13585" data-name="Path 13585" d="M64.947.212H5.5A5.5,5.5,0,0,0,0,5.709V22.653a5.5,5.5,0,0,0,5.5,5.5H9.709l5.244,7,5.244-7H64.947a5.5,5.5,0,0,0,5.5-5.5V5.709a5.5,5.5,0,0,0-5.5-5.5Z" transform="translate(0 -0.212)" fill="#ffd36c"/>
      <path id="Path_13586" data-name="Path 13586" d="M423.456.212h-5.74a5.5,5.5,0,0,1,5.5,5.5V22.653a5.5,5.5,0,0,1-5.5,5.5h5.74a5.5,5.5,0,0,0,5.5-5.5V5.709a5.5,5.5,0,0,0-5.5-5.5Z" transform="translate(-358.509 -0.212)" fill="#fcc645"/>
      <path id="Path_13587" data-name="Path 13587" d="M60.751,49.41l1.977,4.006a.388.388,0,0,0,.292.212l4.42.642a.387.387,0,0,1,.215.661l-3.2,3.118a.387.387,0,0,0-.111.343l.755,4.4a.387.387,0,0,1-.562.408l-3.954-2.079a.387.387,0,0,0-.36,0L56.27,63.2a.387.387,0,0,1-.562-.408l.755-4.4a.387.387,0,0,0-.111-.343l-3.2-3.118a.387.387,0,0,1,.215-.661l4.42-.642a.387.387,0,0,0,.292-.212l1.977-4.006A.387.387,0,0,1,60.751,49.41Z" transform="translate(-45.518 -42.251)" fill="#eaaf20"/>
      <path id="Path_13588" data-name="Path 13588" d="M204.229,49.41l1.977,4.006a.388.388,0,0,0,.292.212l4.42.642a.387.387,0,0,1,.215.661l-3.2,3.118a.387.387,0,0,0-.111.343l.755,4.4a.387.387,0,0,1-.562.408l-3.954-2.079a.387.387,0,0,0-.36,0L199.748,63.2a.387.387,0,0,1-.562-.408l.755-4.4a.387.387,0,0,0-.111-.343l-3.2-3.118a.387.387,0,0,1,.215-.661l4.42-.642a.387.387,0,0,0,.292-.212l1.977-4.006A.388.388,0,0,1,204.229,49.41Z" transform="translate(-168.66 -42.251)" fill="#eaaf20"/>
      <path id="Path_13589" data-name="Path 13589" d="M347.709,49.41l1.977,4.006a.388.388,0,0,0,.292.212l4.42.642a.387.387,0,0,1,.215.661l-3.2,3.118a.387.387,0,0,0-.111.343l.755,4.4a.387.387,0,0,1-.562.408l-3.954-2.079a.387.387,0,0,0-.36,0L343.228,63.2a.387.387,0,0,1-.562-.408l.755-4.4a.387.387,0,0,0-.111-.343l-3.2-3.118a.387.387,0,0,1,.215-.661l4.42-.642a.387.387,0,0,0,.292-.212l1.977-4.006A.388.388,0,0,1,347.709,49.41Z" transform="translate(-291.803 -42.251)" fill="#eaaf20"/>
    </g>
  </g>
</svg>
