<svg xmlns="http://www.w3.org/2000/svg" xmlns:xlink="http://www.w3.org/1999/xlink" width="40" height="40" viewBox="0 0 40 40">
  <defs>
    <clipPath id="clip-whatsapp-icon">
      <rect width="40" height="40"/>
    </clipPath>
  </defs>
  <g id="whatsapp-icon" clip-path="url(#clip-whatsapp-icon)">
    <g id="XMLID_468_" transform="translate(1.748 1.748)">
      <path id="XMLID_469_" d="M98.314,91.184c-.071-.034-2.732-1.345-3.205-1.515a1.841,1.841,0,0,0-.62-.137,1.055,1.055,0,0,0-.9.531c-.266.4-1.071,1.336-1.319,1.617-.032.037-.077.081-.1.081s-.436-.17-.56-.224a14,14,0,0,1-5.319-4.725.294.294,0,0,1-.045-.105.858.858,0,0,1,.156-.184c.145-.143.3-.332.454-.515.072-.087.144-.173.215-.255a2.867,2.867,0,0,0,.432-.686l.06-.12a1.241,1.241,0,0,0-.036-1.168c-.063-.126-1.187-2.838-1.306-3.123-.287-.688-.667-1.008-1.194-1.008-.049,0,0,0-.205.009a6.378,6.378,0,0,0-2.213.569,4.632,4.632,0,0,0-1.718,3.941,8.494,8.494,0,0,0,1.841,4.676c.014.018.039.056.076.109a17.337,17.337,0,0,0,7.436,6.456,12.093,12.093,0,0,0,4.491,1.148h0a7.017,7.017,0,0,0,.731-.043L95.6,96.5a4.721,4.721,0,0,0,3.292-2.33,3.683,3.683,0,0,0,.21-2.425A1.68,1.68,0,0,0,98.314,91.184Z" transform="translate(-71.303 -70.208)" fill="#22d935"/>
      <path id="XMLID_470_" d="M18.576,0A17.883,17.883,0,0,0,.647,17.8a17.664,17.664,0,0,0,2.458,9L.025,35.878a.474.474,0,0,0,.592.6l9.472-3.01A17.958,17.958,0,0,0,36.5,17.8,17.882,17.882,0,0,0,18.576,0Zm0,31.881a14.2,14.2,0,0,1-7.815-2.33.474.474,0,0,0-.4-.055L5.613,31l1.532-4.519a.474.474,0,0,0-.066-.432,13.9,13.9,0,0,1-2.7-8.258,14.2,14.2,0,1,1,14.2,14.086Z" transform="translate(0)" fill="#22d935"/>
    </g>
  </g>
</svg>
